<?xml version="1.0" standalone="no"?><!DOCTYPE svg PUBLIC "-//W3C//DTD SVG 1.1//EN" "http://www.w3.org/Graphics/SVG/1.1/DTD/svg11.dtd"><svg t="1651409035818" class="icon" viewBox="0 0 1024 1024" version="1.1" xmlns="http://www.w3.org/2000/svg" p-id="5909" xmlns:xlink="http://www.w3.org/1999/xlink" width="200" height="200"><defs><style type="text/css"></style></defs><path d="M752 240H144c-17.7 0-32 14.3-32 32v608c0 17.7 14.3 32 32 32h608c17.7 0 32-14.3 32-32V272c0-17.7-14.3-32-32-32z m-40 600H184V312h528v528z m168-728H264c-4.4 0-8 3.6-8 8v56c0 4.4 3.6 8 8 8h576v576c0 4.4 3.6 8 8 8h56c4.4 0 8-3.6 8-8V144c0-17.7-14.3-32-32-32zM300 550h296v64H300z" p-id="5910" fill="#ffffff"></path></svg>